<svg xmlns="http://www.w3.org/2000/svg" viewBox="0 0 180 155" fill="none">
  <defs>
    <linearGradient id="favCartFrame" x1="0%" y1="0%" x2="100%" y2="100%">
      <stop offset="0%" stop-color="#00A3FF" />
      <stop offset="35%" stop-color="#0080FF" />
      <stop offset="70%" stop-color="#0055FF" />
      <stop offset="100%" stop-color="#0040E0" />
    </linearGradient>

    <linearGradient id="favBasket" x1="0%" y1="0%" x2="100%" y2="70%">
      <stop offset="0%" stop-color="#00A8FF" />
      <stop offset="45%" stop-color="#0066FF" />
      <stop offset="100%" stop-color="#0044DD" />
    </linearGradient>

    <linearGradient id="favSpeed1" x1="0%" y1="0%" x2="100%" y2="0%">
      <stop offset="0%" stop-color="#00A3FF" stop-opacity="0.1" />
      <stop offset="100%" stop-color="#00A3FF" />
    </linearGradient>
    <linearGradient id="favSpeed2" x1="0%" y1="0%" x2="100%" y2="0%">
      <stop offset="0%" stop-color="#00A3FF" stop-opacity="0.1" />
      <stop offset="100%" stop-color="#00A3FF" />
    </linearGradient>
    <linearGradient id="favSpeed3" x1="0%" y1="0%" x2="100%" y2="0%">
      <stop offset="0%" stop-color="#00A3FF" stop-opacity="0.1" />
      <stop offset="100%" stop-color="#00A3FF" />
    </linearGradient>

    <linearGradient id="favWheel1" x1="0%" y1="0%" x2="100%" y2="100%">
      <stop offset="0%" stop-color="#0099FF" />
      <stop offset="100%" stop-color="#0044DD" />
    </linearGradient>
    <linearGradient id="favWheel2" x1="0%" y1="0%" x2="100%" y2="100%">
      <stop offset="0%" stop-color="#0099FF" />
      <stop offset="100%" stop-color="#0044DD" />
    </linearGradient>
  </defs>

  <line x1="10" y1="56" x2="48" y2="56" stroke="url(#favSpeed1)" stroke-width="7" stroke-linecap="round" />
  <line x1="22" y1="78" x2="60" y2="78" stroke="url(#favSpeed2)" stroke-width="7" stroke-linecap="round" />
  <line x1="36" y1="100" x2="66" y2="100" stroke="url(#favSpeed3)" stroke-width="7" stroke-linecap="round" />

  <path d="M 28 42 L 56 42 C 62 42 67 46 69 52 L 84 96 C 86 102 92 106 99 106 L 158 106" fill="none" stroke="url(#favCartFrame)" stroke-width="13" stroke-linecap="round" stroke-linejoin="round" />

  <path d="M 84 56 L 160 56 C 165 56 169 60 169 65 C 169 70 165 74 160 74 L 132 74 L 118 102 C 116 106 112 108 108 108 L 102 108 C 97 108 94 104 96 99 L 108 74 L 84 74 C 79 74 76 70 76 65 C 76 60 79 56 84 56 Z" fill="url(#favBasket)" />

  <circle cx="84" cy="132" r="13" fill="url(#favWheel1)" />
  <circle cx="146" cy="132" r="13" fill="url(#favWheel2)" />
</svg>
